# xmcd
#
# Track frame offsets:
#	150
#	19526
#	41319
#	66673
#	88775
#	110540
#	135381
#	161731
#	180409
#	203499
#	221340
#	242335
#	262831
#
# Disc length: 3966 seconds
#
# Revision: 19
# Processed by: cddbd v1.5.2PL0 Copyright (c) Steve Scherf et al.
# Submitted via: Jack! The Knife 20 Magnifico
#
DISCID=a20f7c0d
DTITLE=Voivod - Voivod
DYEAR=2003
DGENRE=Metal
TTITLE0=Gasmask Revival
TTITLE1=Facing Up
TTITLE2=Blame Us
TTITLE3=Real Again?
TTITLE4=Rebel Robot
TTITLE5=The Multiverse
TTITLE6=I Don't Wanna Wake Up
TTITLE7=Les Cigares Volants
TTITLE8=Divine Sun
TTITLE9=Reactor
TTITLE10=Invisible Planet
TTITLE11=Strange And Ironic
TTITLE12=We Carry On
EXTD=Voivod, Jasonic, Brian Joseph Dobbs
EXTT0=Bélanger, Langevin, D'Amour, Newsted
EXTT1=Bélanger, Langevin, D'Amour, Newsted
EXTT2=Bélanger, Langevin, D'Amour, Newsted
EXTT3=Bélanger, Langevin, D'Amour, Newsted
EXTT4=Bélanger, Langevin, D'Amour, Newsted
EXTT5=Bélanger, Langevin, D'Amour, Newsted
EXTT6=Bélanger, Langevin, D'Amour, Newsted
EXTT7=Bélanger, Langevin, D'Amour, Newsted
EXTT8=Bélanger, Langevin, D'Amour, Newsted
EXTT9=Bélanger, Langevin, D'Amour, Newsted
EXTT10=Bélanger, Langevin, D'Amour, Newsted
EXTT11=Bélanger, Langevin, D'Amour, Newsted
EXTT12=Bélanger, Langevin, D'Amour, Newsted
PLAYORDER=
